<?xml version="1.0" encoding="UTF-8"?>
<svg xmlns="http://www.w3.org/2000/svg" version="1.1" viewBox="0 0 44 44">
  <defs>
    <style>
      .cls-1 {
        fill: #2049bd;
      }
    </style>
  </defs>
  <!-- Generator: Adobe Illustrator 28.7.5, SVG Export Plug-In . SVG Version: 1.2.0 Build 176)  -->
  <g>
    <g id="_레이어_1" data-name="레이어_1">
      <polygon class="cls-1" points="43 17 43 16 43 15 43 14 42 14 42 13 42 12 41 12 41 11 41 10 40 10 40 9 39 9 39 8 38 8 38 7 37 7 37 6 36 6 36 5 35 5 35 4 34 4 34 3 33 3 32 3 32 2 31 2 30 2 30 1 29 1 28 1 27 1 27 0 26 0 25 0 24 0 23 0 22 0 21 0 20 0 19 0 18 0 17 0 17 1 16 1 15 1 14 1 14 2 13 2 12 2 12 3 11 3 10 3 10 4 9 4 9 5 8 5 8 6 7 6 7 7 6 7 6 8 5 8 5 9 4 9 4 10 3 10 3 11 3 12 2 12 2 13 2 14 1 14 1 15 1 16 1 17 0 17 0 18 0 19 0 20 0 21 0 22 0 23 0 24 0 25 0 26 0 27 1 27 1 28 1 29 1 30 2 30 2 31 2 32 3 32 3 33 3 34 4 34 4 35 5 35 5 36 6 36 6 37 7 37 7 38 8 38 8 39 9 39 9 40 10 40 10 41 11 41 12 41 12 42 13 42 14 42 14 43 15 43 16 43 17 43 17 44 18 44 19 44 20 44 21 44 22 44 23 44 24 44 25 44 26 44 27 44 27 43 28 43 29 43 30 43 30 42 31 42 32 42 32 41 33 41 34 41 34 40 35 40 35 39 36 39 36 38 37 38 37 37 38 37 38 36 39 36 39 35 40 35 40 34 41 34 41 33 41 32 42 32 42 31 42 30 43 30 43 29 43 28 43 27 44 27 44 26 44 25 44 24 44 23 44 22 44 21 44 20 44 19 44 18 44 17 43 17"/>
    </g>
  </g>
</svg>