<svg width="25" height="25" viewBox="0 0 25 25" fill="none" xmlns="http://www.w3.org/2000/svg">
<path d="M22.6657 8.16663V7.16663H21.6657V6.16663H20.6657V5.16663H19.6657V4.16663H18.6657V3.16663H17.6657V2.16663H16.6657V1.16663H8.66568V2.16663H7.66568V3.16663H6.66568V4.16663H5.66568V5.16663H4.66568V6.16663H3.66568V7.16663H2.66568V8.16663H1.66568V16.1666H2.66568V17.1666H3.66568V18.1666H4.66568V19.1666H5.66568V20.1666H6.66568V21.1666H7.66568V22.1666H8.66568V23.1666H16.6657V22.1666H17.6657V21.1666H18.6657V20.1666H19.6657V19.1666H20.6657V18.1666H21.6657V17.1666H22.6657V16.1666H23.6657V8.16663H22.6657ZM16.6657 17.1666H14.6657V16.1666H13.6657V15.1666H11.6657V16.1666H10.6657V17.1666H8.66568V16.1666H7.66568V14.1666H8.66568V13.1666H9.66568V11.1666H8.66568V10.1666H7.66568V8.16663H8.66568V7.16663H10.6657V8.16663H11.6657V9.16663H13.6657V8.16663H14.6657V7.16663H16.6657V8.16663H17.6657V10.1666H16.6657V11.1666H15.6657V13.1666H16.6657V14.1666H17.6657V16.1666H16.6657V17.1666Z" fill="black"/>
</svg>
